<svg width="228" height="71" viewBox="0 0 228 71" fill="none" xmlns="http://www.w3.org/2000/svg">
<g clip-path="url(#clip0_2403_995)">
<path d="M67.5901 28.6483C65.6442 23.7178 62.5104 19.4128 58.5011 16.1621C54.4917 12.9115 49.7468 10.8288 44.7391 10.1216C39.7315 9.41435 34.636 10.1073 29.9605 12.1314C25.2851 14.1555 21.1928 17.4401 18.0917 21.6578C14.9905 25.8754 12.9888 30.8789 12.2859 36.1696C11.583 41.4602 12.2036 46.8533 14.0857 51.8113C15.9678 56.7694 19.0458 61.1192 23.0129 64.4274C26.98 67.7355 31.6976 69.8864 36.6957 70.6658C36.041 68.171 35.375 65.4136 34.788 62.4891C36.4956 63.6604 38.2929 64.6786 40.161 65.533V65.533C40.161 65.533 40.2964 68.1113 40.477 70.9881C42.4955 71.0249 44.5121 70.8368 46.4934 70.427C46.4422 70.1271 46.4422 69.8198 46.4934 69.5198C46.8207 67.2877 47.7237 63.265 47.9043 60.6747C49.2061 59.387 50.3105 57.893 51.1778 56.2461V56.2461L51.11 56.7714C50.4892 61.8564 49.1911 67.2877 48.401 68.7917C48.1452 69.2896 47.8304 69.7509 47.4641 70.1644C51.55 69.1508 55.3786 67.2096 58.6844 64.4753C61.9902 61.7411 64.6941 58.2792 66.6087 54.3298C68.5233 50.3803 69.6027 46.0378 69.7722 41.6032C69.9416 37.1687 69.1971 32.7482 67.5901 28.6483V28.6483ZM65.9308 33.1723C65.4341 33.6856 64.4069 34.0318 64.2376 32.48C64.0683 30.9282 64.0232 29.842 64.0232 29.842C64.0232 29.842 61.8446 25.7476 61.0319 25.6999C60.2192 25.6522 54.4512 29.842 52.9274 31.6683C51.6067 33.2081 51.3471 33.1007 51.3471 35.8104C51.3471 37.8515 51.5954 45.5627 51.46 51.4595L42.2605 54.0498C39.369 54.9273 36.4285 55.613 33.4561 56.1029L32.3273 49.1437H32.1693L29.2684 33.423C29.2684 33.423 24.9678 31.7041 23.3875 31.2386C22.6455 30.8953 21.8261 30.7837 21.026 30.9169C20.226 31.0502 19.4787 31.4227 18.8724 31.9906C18.2539 32.5633 17.7593 33.2703 17.4223 34.0633C17.0853 34.8563 16.9139 35.7168 16.9196 36.5862C17.1582 37.141 17.3399 37.7213 17.4614 38.3171C17.5179 38.89 16.1069 38.8304 15.2039 38.8304C14.3009 38.8304 14.1654 37.1115 14.8766 35.0941C15.4314 33.543 16.119 32.0486 16.9309 30.6298C17.5416 29.3624 18.3293 28.1994 19.2675 27.1801C19.2675 27.1801 19.4255 26.7742 20.6784 26.8936C21.9314 27.0129 28.8959 27.4069 28.8959 27.4069L28.9523 24.6972C36.5222 23.5919 44.1569 23.0574 51.7986 23.0977C51.7986 23.8258 51.7986 24.554 51.7986 25.2821C54.693 23.8853 57.8097 23.0755 60.9868 22.8948C61.1568 22.8902 61.3252 22.9304 61.4769 23.0116C61.6286 23.0929 61.7588 23.2127 61.8559 23.3603C62.2397 23.8736 64.5763 26.9413 64.8472 27.383C65.6059 28.5298 66.2958 29.7258 66.9128 30.964C66.7013 31.748 66.3696 32.49 65.9308 33.1604V33.1723Z" fill="#FDC305"/>
<path d="M63.7302 25.867C64.2608 26.5832 64.7236 27.2159 64.859 27.4069C65.6178 28.5536 66.3077 29.7497 66.9247 30.9879C66.7099 31.7462 66.3822 32.4634 65.9539 33.1126C65.4573 33.6259 64.4301 33.9721 64.2608 32.4203C64.0915 30.8685 64.0237 29.842 64.0237 29.842C64.0237 29.842 61.8452 25.7476 61.0325 25.6999C60.2198 25.6522 54.4518 29.842 52.9279 31.6683C51.6073 33.2081 51.3477 33.1007 51.3477 35.8104C51.3477 37.6009 51.5395 43.7483 51.4944 49.2154C53.5375 49.4541 56.54 50.0509 57.443 51.4595C57.443 51.4595 57.1157 42.8889 66.2587 47.3771C66.2587 47.3771 66.5747 35.691 79.1944 38.6871C74.9044 33.3607 69.6455 29.001 63.7302 25.867V25.867Z" fill="#F06351"/>
<path d="M51.8443 23.0977C51.8902 16.4832 51.3612 9.87826 50.264 3.36617C50.264 3.36617 50.0947 1.81439 49.282 3.07969C48.6114 4.59234 48.155 6.20116 47.9275 7.8544C43.1022 7.52699 38.2588 7.66283 33.4567 8.26026C32.5311 4.97764 30.9508 3.48554 30.1945 3.87945C29.4383 4.27337 29.348 7.79472 29.348 7.79472L28.9755 24.6972C36.5529 23.5908 44.1951 23.0562 51.8443 23.0977V23.0977Z" fill="#F06351"/>
<path d="M51.1887 56.2461C51.3355 54.9689 51.4145 53.2739 51.4596 51.3998L42.2606 53.9901C39.3705 54.8878 36.4301 55.5934 33.4567 56.1029L34.7095 62.0713C34.7095 62.2026 34.7095 62.3339 34.7885 62.4652C36.496 63.6365 38.2932 64.6547 40.1612 65.5091C42.8912 64.129 45.4914 62.4783 47.9268 60.5792V60.6508C49.2226 59.3695 50.323 57.8837 51.1887 56.2461V56.2461Z" fill="#E55645"/>
<path d="M36.1206 19.3615C36.0642 19.2421 37.2493 20.1732 37.7121 20.4597C38.1749 20.7461 38.4006 20.961 38.4006 21.1639C38.4006 21.3668 38.1071 21.5698 37.7008 21.5698C37.2945 21.5698 36.6624 21.4265 36.5721 21.2594C36.4818 21.0923 37.2493 21.2594 37.6331 21.2594H37.9604C37.2655 20.7218 36.6461 20.0828 36.1206 19.3615Z" fill="black"/>
<path d="M44.5863 19.4928C44.5863 19.4928 43.4576 21.0207 43.356 21.0923C43.2544 21.1639 43.1641 21.4981 43.5704 21.4385C44.0369 21.3648 44.4973 21.2531 44.9475 21.1042C45.0716 21.0326 45.0265 20.8655 44.812 20.8894C44.5976 20.9132 44.0445 20.9491 43.6833 21.0207L44.6427 19.5047C44.6427 19.5047 44.6766 19.3615 44.5863 19.4928Z" fill="black"/>
<path d="M41.0419 26.7862C41.5651 26.5424 41.9976 26.1228 42.2722 25.5925C42.5882 24.8046 42.2722 24.5062 41.7756 24.3988C41.0923 24.267 40.3872 24.4118 39.8003 24.8046C39.3601 25.2463 39.4166 25.676 39.8003 25.9983C40.1816 26.3145 40.5987 26.5792 41.0419 26.7862V26.7862Z" fill="black"/>
<path d="M40.6354 28.2902C40.5059 28.5609 40.3298 28.8038 40.1162 29.0064C39.7948 29.2799 39.3996 29.4387 38.9875 29.46C38.3661 29.5245 37.7447 29.3367 37.2493 28.9348C37.0218 28.794 36.8193 28.6122 36.6511 28.3976C36.5382 28.2676 36.3994 28.1657 36.2448 28.0992C36.2448 28.0992 37.0913 33.0052 39.1455 33.793C41.1998 34.5809 41.5836 32.8858 41.64 32.4322C41.7088 31.0737 41.386 29.7251 40.7145 28.5647C40.7145 28.2066 40.6919 28.4454 40.6354 28.2902Z" fill="#F06351"/>
<path d="M38.7166 29.651C38.1884 29.5707 37.681 29.378 37.2251 29.0846C36.7692 28.7913 36.3743 28.4033 36.0641 27.944C36.0363 27.9112 36.021 27.8687 36.021 27.8246C36.021 27.7806 36.0363 27.7381 36.0641 27.7053C36.0788 27.6894 36.0964 27.6768 36.1158 27.6682C36.1351 27.6596 36.156 27.6551 36.177 27.6551C36.198 27.6551 36.2188 27.6596 36.2382 27.6682C36.2576 27.6768 36.2751 27.6894 36.2899 27.7053C36.5692 28.1197 36.9235 28.4713 37.3324 28.7397C37.7412 29.0082 38.1963 29.1881 38.6714 29.269C39.0473 29.2391 39.4111 29.1154 39.7329 28.9078C40.0547 28.7003 40.3253 28.415 40.5225 28.0753L40.6805 27.8485L40.7934 28.1111C40.7934 28.1111 41.2223 29.0183 41.9221 29.0661C42.6219 29.1138 43.1186 28.5647 43.7619 27.5262C43.7859 27.4882 43.8231 27.4619 43.8655 27.4529C43.9078 27.444 43.9518 27.4532 43.9877 27.4785C44.0236 27.5038 44.0485 27.5432 44.057 27.588C44.0655 27.6327 44.0568 27.6792 44.0328 27.7172C43.2803 28.887 42.5693 29.4481 41.8996 29.4003C41.6407 29.364 41.3928 29.2669 41.1741 29.1162C40.9553 28.9654 40.7713 28.7647 40.6354 28.5289C40.4146 28.8551 40.1277 29.125 39.7958 29.3191C39.4639 29.5132 39.0952 29.6266 38.7166 29.651Z" fill="black"/>
<path d="M40.929 45.7179C43.2666 45.7179 45.1616 43.7138 45.1616 41.2416C45.1616 38.7694 43.2666 36.7653 40.929 36.7653C38.5913 36.7653 36.6963 38.7694 36.6963 41.2416C36.6963 43.7138 38.5913 45.7179 40.929 45.7179Z" fill="#FDC305"/>
<path d="M46.5386 37.6009L43.0057 39.1646L44.3037 32.4442L35.8384 44.0945L39.3713 42.5308L38.0732 49.2631L46.5386 37.6009ZM38.1974 42.1727L42.8928 35.7149L41.9786 40.4896L44.236 39.5108L39.5067 45.9805L40.421 41.2058L38.1974 42.1727Z" fill="#111111"/>
<path d="M36.6172 40.418C37.3154 40.418 37.8813 39.8194 37.8813 39.081C37.8813 38.3427 37.3154 37.7441 36.6172 37.7441C35.919 37.7441 35.353 38.3427 35.353 39.081C35.353 39.8194 35.919 40.418 36.6172 40.418Z" fill="#111111"/>
<path d="M43.9768 45.2643C44.4692 45.2643 44.8685 44.8421 44.8685 44.3213C44.8685 43.8005 44.4692 43.3783 43.9768 43.3783C43.4843 43.3783 43.0851 43.8005 43.0851 44.3213C43.0851 44.8421 43.4843 45.2643 43.9768 45.2643Z" fill="#111111"/>
<path d="M45.0605 42.674C45.2786 42.674 45.4555 42.487 45.4555 42.2562C45.4555 42.0255 45.2786 41.8384 45.0605 41.8384C44.8423 41.8384 44.6654 42.0255 44.6654 42.2562C44.6654 42.487 44.8423 42.674 45.0605 42.674Z" fill="#111111"/>
<path d="M51.7879 25.2582C49.7503 27.2007 47.8313 29.2779 46.0425 31.4773C44.2606 33.6609 42.2498 35.6232 40.0487 37.3263C39.8004 36.6937 38.2088 35.5119 38.2088 35.5119C38.2088 35.5119 34.6645 32.9455 32.3392 30.9282C31.0822 29.8211 29.898 28.6246 28.7949 27.3472L26.5374 27.2159C29.7962 32.2498 34.5703 35.969 40.0826 37.768C41.0533 37.6009 43.7849 35.5358 45.828 33.8527C48.2451 31.6789 50.5087 29.3211 52.6006 26.7981C53.1629 26.0914 53.5989 25.2824 53.8874 24.4107C52.6006 24.8643 51.7879 25.2582 51.7879 25.2582Z" fill="#F06351"/>
<path d="M73.6177 4.17787L64.0688 15.4462L62.6918 13.0708L71.8908 0L73.6177 4.17787Z" fill="#FDC305"/>
<path d="M70.7174 20.6029L76.9704 15.6969L76.0901 11.2325L69.995 16.9741L70.7174 20.6029Z" fill="#FDC305"/>
<path d="M67.6359 58.9319L74.5549 62.7278L77.9523 59.9346L70.4012 56.652L67.6359 58.9319Z" fill="#FDC305"/>
<path d="M2.20105 7.12626L5.6662 3.1155L16.1519 13.8586L14.7749 16.5802L2.20105 7.12626Z" fill="#FDC305"/>
<path d="M8.3299 19.4331L3.02495 15.6969L0.31604 20.3164L6.12891 23.1812L8.3299 19.4331Z" fill="#FDC305"/>
<path d="M15.7003 62.7278L10.5647 66.7266L13.7251 71L18.2625 66.2014L15.7003 62.7278Z" fill="#FDC305"/>
<path d="M29.269 33.423C29.269 33.423 24.9684 31.7041 23.3881 31.2386C22.6461 30.8953 21.8267 30.7837 21.0266 30.9169C20.2266 31.0502 19.4793 31.4227 18.873 31.9906C18.2545 32.5633 17.7599 33.2703 17.4229 34.0633C17.0859 34.8563 16.9145 35.7168 16.9202 36.5862C17.1588 37.141 17.3405 37.7213 17.4621 38.3171C17.5185 38.89 16.1075 38.8304 15.2045 38.8304C14.3015 38.8304 14.166 37.1115 14.8772 35.0941C15.432 33.543 16.1196 32.0486 16.9315 30.6298C10.7797 34.0198 0 41.8504 0 41.8504C3.08345 41.6537 6.17735 41.7496 9.24462 42.1369C15.1707 42.7695 14.8885 47.7113 14.8885 47.7113C16.9728 47.1037 19.097 46.6608 21.2434 46.3863C23.6364 46.2192 23.8057 48.9169 23.8057 48.9169L24.404 53.5245C25.3124 52.4852 26.3142 51.5417 27.3952 50.7075C28.7887 49.5279 30.5629 48.971 32.3392 49.1557V49.1557L29.269 33.423Z" fill="#F06351"/>
<path d="M96.6902 50.1345C95.5274 48.3124 94.9715 46.1327 95.11 43.9393V34.9867C94.9633 32.7772 95.5109 30.5783 96.6676 28.7318C97.7136 27.3074 99.5007 26.5991 102.029 26.6071C104.557 26.6151 106.269 27.2397 107.165 28.4812C108.257 30.0196 108.789 31.9217 108.666 33.8408V35.9417H103.993V33.6617C103.987 33.0618 103.938 32.4633 103.846 31.8712C103.79 31.4426 103.604 31.0448 103.316 30.7372C103.138 30.576 102.932 30.454 102.709 30.3781C102.486 30.3023 102.251 30.2742 102.018 30.2956C101.683 30.2427 101.34 30.3003 101.038 30.4605C100.735 30.6207 100.486 30.8757 100.325 31.1908C100.028 32.0291 99.8973 32.923 99.9409 33.8169V45.1807C99.8894 46.0806 100.04 46.9805 100.381 47.8068C100.544 48.1049 100.786 48.3462 101.076 48.501C101.367 48.6558 101.694 48.7174 102.018 48.6782C102.336 48.7257 102.659 48.6659 102.943 48.5073C103.227 48.3487 103.456 48.0994 103.598 47.7949C103.871 46.955 103.99 46.0677 103.948 45.1807V42.7934H108.621V44.8584C108.758 46.8058 108.269 48.7452 107.232 50.3613C106.239 51.6743 104.523 52.3189 102.085 52.3189C99.6474 52.3189 97.7399 51.6027 96.6902 50.1345Z" fill="#111111"/>
<path d="M115.033 26.9533H120.383L124.898 52.0205H120.45L119.649 46.4818H115.902L114.999 51.9847H110.484L115.033 26.9533ZM119.152 43.3305L117.73 33.2559L116.319 43.3305H119.152Z" fill="#111111"/>
<path d="M128.363 30.7253H124.706V26.9533H136.806V30.7253H133.194V51.9847H128.352L128.363 30.7253Z" fill="#111111"/>
<path d="M146.3 26.9533H155.476V29.5555H149.607V37.8277H154.37V40.2986H149.607V49.478H155.533V51.9847H146.3V26.9533Z" fill="#444444"/>
<path d="M158.197 26.9533H160.454L167.227 43.5812V26.9533H169.981V52.0205H167.87L161.098 34.927V51.9847H158.298L158.197 26.9533Z" fill="#444444"/>
<path d="M173.627 26.9533H182.792V29.5555H176.923V37.8277H181.731V40.2986H176.968V49.478H182.86V51.9847H173.627V26.9533Z" fill="#444444"/>
<path d="M185.513 26.9533H190.276C192.153 26.7935 194.023 27.3481 195.547 28.517C196.676 29.5555 197.229 31.2505 197.229 33.6021C197.229 36.7852 196.255 38.7309 194.306 39.4391L197.692 51.9847H194.486L191.382 40.2389H188.82V51.9847H185.513V26.9533ZM190.028 37.6964C191.115 37.8076 192.203 37.484 193.076 36.7892C193.43 36.3452 193.695 35.8292 193.855 35.2729C194.014 34.7166 194.064 34.1318 194.001 33.5543C194.024 32.7445 193.913 31.9366 193.674 31.167C193.577 30.8832 193.427 30.6228 193.233 30.4014C193.039 30.18 192.805 30.0019 192.545 29.8778C191.812 29.5599 191.022 29.4172 190.231 29.46H188.775V37.7441L190.028 37.6964Z" fill="#444444"/>
<path d="M201.677 50.1345C200.598 48.2087 200.098 45.9815 200.244 43.7483V35.3926C200.205 33.7801 200.395 32.1706 200.808 30.6179C201.134 29.4505 201.827 28.4357 202.772 27.7411C203.913 27.0138 205.234 26.6646 206.564 26.7384C207.425 26.6518 208.293 26.7651 209.108 27.0702C209.923 27.3754 210.665 27.8651 211.282 28.505C212.365 30.1094 212.877 32.067 212.727 34.0318V34.9628H209.623V34.187C209.644 33.2589 209.576 32.3311 209.42 31.4176C209.317 30.8322 209.011 30.3085 208.562 29.9494C207.976 29.5837 207.3 29.4132 206.621 29.46C205.883 29.3933 205.151 29.6331 204.578 30.1284C204.11 30.5982 203.804 31.2201 203.709 31.8951C203.566 32.8784 203.502 33.8727 203.517 34.8673V44.1661C203.427 45.5791 203.655 46.9945 204.183 48.2962C204.489 48.6966 204.878 49.0175 205.319 49.2346C205.761 49.4517 206.243 49.5592 206.73 49.5488C207.217 49.5385 207.695 49.4105 208.128 49.1748C208.561 48.9391 208.937 48.6018 209.228 48.1888C209.772 46.812 210.008 45.3209 209.917 43.8319V42.0652H206.914V39.5943H212.896V51.9847H210.853L210.526 49.1079C210.267 50.0637 209.711 50.8988 208.946 51.4774C208.182 52.056 207.255 52.3442 206.316 52.2951C205.433 52.3774 204.545 52.2225 203.734 51.8448C202.923 51.467 202.216 50.8788 201.677 50.1345V50.1345Z" fill="#444444"/>
<path d="M219.76 43.1515L214.647 26.9533H217.717L221.34 39.0333L224.907 26.9533H228.011L222.931 43.1515V51.9847H219.771L219.76 43.1515Z" fill="#444444"/>
</g>
<defs>
<clipPath id="clip0_2403_995">
<rect width="228" height="71" fill="white"/>
</clipPath>
</defs>
</svg>
