<svg width="228" height="71" fill="none" xmlns="http://www.w3.org/2000/svg"><g clip-path="url(#a)"><path d="M67.59 28.648c-1.946-4.93-5.08-9.235-9.089-12.486-4.01-3.25-8.754-5.333-13.762-6.04a27.467 27.467 0 0 0-14.778 2.01c-4.676 2.024-8.768 5.308-11.87 9.526-3.1 4.217-5.102 9.22-5.805 14.512a32.197 32.197 0 0 0 1.8 15.641c1.882 4.958 4.96 9.308 8.927 12.616 3.967 3.308 8.685 5.46 13.683 6.239a143.518 143.518 0 0 1-1.908-8.177 35.89 35.89 0 0 0 5.373 3.044s.135 2.578.316 5.455a27.243 27.243 0 0 0 6.016-.561 2.698 2.698 0 0 1 0-.907c.328-2.232 1.23-6.255 1.411-8.845a18.064 18.064 0 0 0 3.274-4.429l-.068.525c-.62 5.085-1.919 10.517-2.709 12.02-.256.499-.57.96-.937 1.373 4.086-1.013 7.915-2.954 11.22-5.689 3.306-2.734 6.01-6.196 7.925-10.145a32 32 0 0 0 3.163-12.727 32.17 32.17 0 0 0-2.182-12.955Zm-1.66 4.524c-.496.514-1.523.86-1.692-.692a43.659 43.659 0 0 1-.215-2.638s-2.178-4.094-2.991-4.142c-.813-.048-6.58 4.142-8.105 5.968-1.32 1.54-1.58 1.433-1.58 4.142 0 2.041.248 9.753.113 15.65l-9.2 2.59a68.9 68.9 0 0 1-8.804 2.053l-1.129-6.96h-.158l-2.9-15.72s-4.301-1.719-5.881-2.184a4.035 4.035 0 0 0-2.362-.322 4.15 4.15 0 0 0-2.154 1.074 6.042 6.042 0 0 0-1.45 2.072 6.35 6.35 0 0 0-.502 2.523c.238.555.42 1.135.541 1.731.057.573-1.354.513-2.257.513s-1.039-1.718-.327-3.736a27.922 27.922 0 0 1 2.054-4.464 14.18 14.18 0 0 1 2.336-3.45s.159-.406 1.411-.286c1.253.119 8.218.513 8.218.513l.056-2.71a152.537 152.537 0 0 1 22.847-1.6v2.185a24.303 24.303 0 0 1 9.188-2.387.981.981 0 0 1 .49.117c.152.08.282.2.379.348.384.514 2.72 3.581 2.991 4.023a33.858 33.858 0 0 1 2.066 3.581 7.648 7.648 0 0 1-.982 2.196v.012Z" fill="#FDC305"/><path d="M63.73 25.867c.53.716.994 1.349 1.129 1.54a33.831 33.831 0 0 1 2.066 3.58 7.639 7.639 0 0 1-.971 2.126c-.497.513-1.524.86-1.693-.693-.17-1.552-.237-2.578-.237-2.578s-2.179-4.094-2.992-4.142c-.812-.048-6.58 4.142-8.104 5.968-1.32 1.54-1.58 1.433-1.58 4.142 0 1.79.191 7.938.146 13.405 2.044.24 5.046.836 5.949 2.244 0 0-.327-8.57 8.816-4.082 0 0 .316-11.686 12.935-8.69-4.29-5.326-9.549-9.686-15.464-12.82ZM51.844 23.098c.046-6.615-.483-13.22-1.58-19.732 0 0-.17-1.552-.982-.286a17.758 17.758 0 0 0-1.354 4.774 75.683 75.683 0 0 0-14.471.406c-.926-3.282-2.506-4.774-3.262-4.38-.757.393-.847 3.915-.847 3.915l-.372 16.902a152.531 152.531 0 0 1 22.868-1.6Z" fill="#F06351"/><path d="M51.189 56.246c.147-1.277.225-2.972.27-4.846l-9.198 2.59a68.915 68.915 0 0 1-8.804 2.113l1.252 5.968c0 .132 0 .263.08.394a35.887 35.887 0 0 0 5.372 3.044c2.73-1.38 5.33-3.03 7.766-4.93v.072a18.06 18.06 0 0 0 3.262-4.405Z" fill="#E55645"/><path d="M36.12 19.361c-.056-.119 1.13.812 1.592 1.099.463.286.689.501.689.704 0 .203-.294.406-.7.406-.407 0-1.039-.143-1.129-.31-.09-.168.677 0 1.061 0h.327a9.381 9.381 0 0 1-1.84-1.899ZM44.586 19.493s-1.128 1.528-1.23 1.6c-.102.07-.192.405.214.346a8.716 8.716 0 0 0 1.377-.335c.125-.071.08-.238-.135-.215-.214.024-.767.06-1.129.132l.96-1.516s.034-.143-.057-.012ZM41.042 26.786a2.657 2.657 0 0 0 1.23-1.194c.316-.787 0-1.086-.496-1.193a2.642 2.642 0 0 0-1.976.406c-.44.441-.383.871 0 1.193.382.316.799.581 1.242.788Z" fill="#000"/><path d="M40.635 28.29c-.13.27-.305.514-.519.716a1.892 1.892 0 0 1-1.129.454 2.366 2.366 0 0 1-1.738-.525 2.297 2.297 0 0 1-.598-.537 1.13 1.13 0 0 0-.406-.299s.846 4.906 2.9 5.694c2.055.788 2.439-.907 2.495-1.36a7.025 7.025 0 0 0-.925-3.868c0-.358-.023-.12-.08-.275Z" fill="#F06351"/><path d="M38.717 29.651a3.815 3.815 0 0 1-1.492-.566 4.045 4.045 0 0 1-1.16-1.141.185.185 0 0 1-.044-.12c0-.043.015-.086.043-.119a.157.157 0 0 1 .113-.05.151.151 0 0 1 .113.05c.28.415.633.766 1.042 1.035.41.268.864.448 1.34.529.375-.03.74-.154 1.06-.361.323-.208.593-.493.79-.833l.159-.226.112.262s.43.907 1.13.955c.699.048 1.196-.501 1.839-1.54a.163.163 0 0 1 .103-.073.156.156 0 0 1 .123.026c.036.025.06.064.069.109a.18.18 0 0 1-.024.13c-.753 1.169-1.464 1.73-2.133 1.682a1.693 1.693 0 0 1-.726-.284 1.808 1.808 0 0 1-.539-.587c-.22.326-.507.596-.84.79-.331.194-.7.308-1.078.332Z" fill="#000"/><path d="M40.929 45.718c2.338 0 4.233-2.004 4.233-4.476 0-2.473-1.895-4.477-4.233-4.477-2.338 0-4.233 2.004-4.233 4.477 0 2.472 1.895 4.476 4.233 4.476Z" fill="#FDC305"/><path d="m46.539 37.6-3.533 1.565 1.298-6.72-8.466 11.65 3.533-1.564-1.298 6.732 8.466-11.662Zm-8.342 4.573 4.696-6.458-.914 4.775 2.257-.98-4.73 6.47.915-4.774-2.224.967ZM36.617 40.418c.698 0 1.264-.599 1.264-1.337s-.566-1.337-1.264-1.337c-.698 0-1.264.599-1.264 1.337s.566 1.337 1.264 1.337ZM43.977 45.264c.492 0 .892-.422.892-.943 0-.52-.4-.943-.892-.943-.493 0-.892.422-.892.943 0 .521.4.943.892.943ZM45.06 42.674a.407.407 0 0 0 .395-.418.407.407 0 0 0-.395-.418.407.407 0 0 0-.395.418c0 .231.177.418.395.418Z" fill="#111"/><path d="M51.788 25.258a66.987 66.987 0 0 0-5.745 6.22 36.84 36.84 0 0 1-5.994 5.848c-.249-.632-1.84-1.814-1.84-1.814s-3.545-2.566-5.87-4.584a36.965 36.965 0 0 1-3.544-3.58l-2.258-.132c3.26 5.034 8.033 8.753 13.546 10.552.97-.167 3.702-2.232 5.745-3.915a67 67 0 0 0 6.773-7.055 7.738 7.738 0 0 0 1.286-2.387 22.3 22.3 0 0 0-2.1.847Z" fill="#F06351"/><path d="m73.618 4.178-9.55 11.268-1.376-2.375L71.89 0l1.727 4.178ZM70.717 20.603l6.253-4.906-.88-4.464-6.095 5.741.722 3.629ZM67.636 58.932l6.919 3.796 3.397-2.793-7.55-3.283-2.766 2.28ZM2.201 7.126l3.465-4.01 10.486 10.743-1.377 2.721L2.2 7.126ZM8.33 19.433l-5.305-3.736-2.709 4.62 5.813 2.864 2.2-3.748ZM15.7 62.728l-5.135 3.999L13.725 71l4.537-4.799-2.562-3.473Z" fill="#FDC305"/><path d="M29.269 33.423s-4.3-1.719-5.88-2.184a4.035 4.035 0 0 0-2.362-.322 4.15 4.15 0 0 0-2.154 1.074 6.042 6.042 0 0 0-1.45 2.072 6.35 6.35 0 0 0-.503 2.523c.239.555.42 1.135.542 1.731.056.573-1.354.513-2.258.513-.902 0-1.038-1.718-.327-3.736a27.922 27.922 0 0 1 2.054-4.464C10.78 34.02 0 41.85 0 41.85c3.083-.196 6.177-.1 9.245.287 5.926.633 5.644 5.574 5.644 5.574a41.528 41.528 0 0 1 6.354-1.325c2.393-.167 2.563 2.53 2.563 2.53l.598 4.609a21.076 21.076 0 0 1 2.991-2.817c1.394-1.18 3.168-1.737 4.944-1.552l-3.07-15.733Z" fill="#F06351"/><path d="M96.69 50.135a10.327 10.327 0 0 1-1.58-6.196v-8.952c-.147-2.21.4-4.409 1.558-6.255 1.046-1.425 2.833-2.133 5.361-2.125 2.528.008 4.24.633 5.136 1.874a8.352 8.352 0 0 1 1.501 5.36v2.1h-4.673v-2.28c-.006-.6-.055-1.198-.147-1.79a2.047 2.047 0 0 0-.53-1.134 1.74 1.74 0 0 0-.607-.359 1.67 1.67 0 0 0-.691-.082 1.567 1.567 0 0 0-.98.165c-.303.16-.552.415-.713.73a6.87 6.87 0 0 0-.384 2.626V45.18c-.052.9.099 1.8.44 2.626.163.298.405.54.695.694.291.155.618.216.942.177.318.048.641-.012.925-.17.284-.16.513-.409.655-.713.273-.84.392-1.727.35-2.614v-2.388h4.673v2.065a9.034 9.034 0 0 1-1.389 5.503c-.993 1.313-2.709 1.958-5.147 1.958s-4.345-.716-5.395-2.184ZM115.033 26.953h5.35l4.515 25.067h-4.448l-.801-5.538h-3.747l-.903 5.503h-4.515l4.549-25.032Zm4.119 16.378-1.422-10.075-1.411 10.075h2.833ZM128.363 30.725h-3.657v-3.772h12.1v3.772h-3.612v21.26h-4.842l.011-21.26Z" fill="#111"/><path d="M146.3 26.953h9.176v2.602h-5.869v8.273h4.763v2.47h-4.763v9.18h5.926v2.507H146.3V26.953ZM158.197 26.953h2.257l6.773 16.628V26.953h2.754V52.02h-2.111l-6.772-17.093v17.058h-2.8l-.101-25.032ZM173.627 26.953h9.165v2.602h-5.869v8.273h4.808v2.47h-4.763v9.18h5.892v2.507h-9.233V26.953ZM185.513 26.953h4.763a7.59 7.59 0 0 1 5.271 1.564c1.129 1.038 1.682 2.733 1.682 5.085 0 3.183-.974 5.129-2.923 5.837l3.386 12.546h-3.206l-3.104-11.746h-2.562v11.746h-3.307V26.953Zm4.515 10.743a4.2 4.2 0 0 0 3.048-.907c.354-.444.619-.96.779-1.516a4.489 4.489 0 0 0 .146-1.719 7.352 7.352 0 0 0-.327-2.387 2.28 2.28 0 0 0-.441-.766 2.144 2.144 0 0 0-.688-.523 5.114 5.114 0 0 0-2.314-.418h-1.456v8.284l1.253-.048ZM201.677 50.135a11.546 11.546 0 0 1-1.433-6.387v-8.355a16.987 16.987 0 0 1 .564-4.775 5.345 5.345 0 0 1 1.964-2.877 6.387 6.387 0 0 1 3.792-1.003 5.637 5.637 0 0 1 2.544.332 5.895 5.895 0 0 1 2.174 1.435 8.712 8.712 0 0 1 1.445 5.527v.93h-3.104v-.775a14.506 14.506 0 0 0-.203-2.77 2.412 2.412 0 0 0-.858-1.468 3.239 3.239 0 0 0-1.941-.489 2.74 2.74 0 0 0-2.043.668 3.118 3.118 0 0 0-.869 1.767 18.697 18.697 0 0 0-.192 2.972v9.3a9.41 9.41 0 0 0 .666 4.13c.306.4.695.72 1.136.938a3.048 3.048 0 0 0 2.809-.06 3.25 3.25 0 0 0 1.1-.986 10.18 10.18 0 0 0 .689-4.357v-1.767h-3.003v-2.47h5.982v12.39h-2.043l-.327-2.877a4.408 4.408 0 0 1-1.58 2.37 4.004 4.004 0 0 1-2.63.817 5.006 5.006 0 0 1-2.582-.45 5.32 5.32 0 0 1-2.057-1.71ZM219.76 43.151l-5.113-16.198h3.07l3.623 12.08 3.567-12.08h3.104l-5.08 16.198v8.834h-3.16l-.011-8.834Z" fill="#444"/></g><defs><clipPath id="a"><path fill="#fff" d="M0 0h228v71H0z"/></clipPath></defs></svg>